<?xml version="1.0" encoding="UTF-8"?>
<svg width="900" height="400" viewBox="0 0 900 400" version="1.1" xmlns="http://www.w3.org/2000/svg">
    <!-- Color rectangles -->
    <rect x="0" y="0" width="100" height="300" fill="#D9B70D"/>
    <rect x="100" y="0" width="100" height="300" fill="#8B4513"/>
    <rect x="200" y="0" width="100" height="300" fill="#C1666D"/>
    <rect x="300" y="0" width="100" height="300" fill="#E8927C"/>
    <rect x="400" y="0" width="100" height="300" fill="#F7EDE2"/>
    <rect x="500" y="0" width="100" height="300" fill="#2A3A3A"/>
    <rect x="600" y="0" width="100" height="300" fill="#395756"/>
    <rect x="700" y="0" width="100" height="300" fill="#7BA7BC"/>
    <rect x="800" y="0" width="100" height="300" fill="#89C5CC"/>

    <!-- Color names -->
    <style>
        .color-name { font-family: Arial, sans-serif; font-size: 14px; text-anchor: middle; }
        .color-hex { font-family: monospace; font-size: 14px; text-anchor: middle; }
        text { fill: #2A3A3A; }
    </style>
    
    <!-- Yellow -->
    <text x="50" y="340" class="color-name">Yellow</text>
    <text x="50" y="365" class="color-hex">#D9B70D</text>

    <!-- Brown -->
    <text x="150" y="340" class="color-name">Brown</text>
    <text x="150" y="365" class="color-hex">#8B4513</text>

    <!-- Rust -->
    <text x="250" y="340" class="color-name">Rust</text>
    <text x="250" y="365" class="color-hex">#C1666D</text>

    <!-- Coral -->
    <text x="350" y="340" class="color-name">Coral</text>
    <text x="350" y="365" class="color-hex">#E8927C</text>

    <!-- Cream -->
    <text x="450" y="340" class="color-name">Cream</text>
    <text x="450" y="365" class="color-hex">#F7EDE2</text>

    <!-- Dark -->
    <text x="550" y="340" class="color-name">Dark</text>
    <text x="550" y="365" class="color-hex">#2A3A3A</text>

    <!-- Forest -->
    <text x="650" y="340" class="color-name">Forest</text>
    <text x="650" y="365" class="color-hex">#395756</text>

    <!-- Teal -->
    <text x="750" y="340" class="color-name">Teal</text>
    <text x="750" y="365" class="color-hex">#7BA7BC</text>

    <!-- Sky -->
    <text x="850" y="340" class="color-name">Sky</text>
    <text x="850" y="365" class="color-hex">#89C5CC</text>
</svg>
